  0
SECTION
  2
HEADER
  9
$ACADVER
  1
AC1018
  9
$ACADMAINTVER
 70
     0
  9
$DWGCODEPAGE
  3
ANSI_1252
  9
$INSBASE
 10
0.0
 20
0.0
 30
0.0
  9
$EXTMIN
 10
-147.354218950699
 20
-134.7473837152728
 30
-0.0000001887044796
  9
$EXTMAX
 10
129.9999847412109
 20
135.8478884546439
 30
0.0000079042776996
  9
$LIMMIN
 10
0.0
 20
0.0
  9
$LIMMAX
 10
12.0
 20
9.0
  9
$ORTHOMODE
 70
     0
  9
$REGENMODE
 70
     1
  9
$FILLMODE
 70
     1
  9
$QTEXTMODE
 70
     0
  9
$MIRRTEXT
 70
     1
  9
$LTSCALE
 40
1.0
  9
$ATTMODE
 70
     1
  9
$TEXTSIZE
 40
0.2
  9
$TRACEWID
 40
0.05
  9
$TEXTSTYLE
  7
Standard
  9
$CLAYER
  8
Default
  9
$CELTYPE
  6
ByLayer
  9
$CECOLOR
 62
   256
  9
$CELTSCALE
 40
1.0
  9
$DISPSILH
 70
     0
  9
$DIMSCALE
 40
1.0
  9
$DIMASZ
 40
0.18
  9
$DIMEXO
 40
0.0625
  9
$DIMDLI
 40
0.38
  9
$DIMRND
 40
0.0
  9
$DIMDLE
 40
0.0
  9
$DIMEXE
 40
0.18
  9
$DIMTP
 40
0.0
  9
$DIMTM
 40
0.0
  9
$DIMTXT
 40
0.18
  9
$DIMCEN
 40
0.09
  9
$DIMTSZ
 40
0.0
  9
$DIMTOL
 70
     0
  9
$DIMLIM
 70
     0
  9
$DIMTIH
 70
     1
  9
$DIMTOH
 70
     1
  9
$DIMSE1
 70
     0
  9
$DIMSE2
 70
     0
  9
$DIMTAD
 70
     0
  9
$DIMZIN
 70
     0
  9
$DIMBLK
  1

  9
$DIMASO
 70
     1
  9
$DIMSHO
 70
     1
  9
$DIMPOST
  1

  9
$DIMAPOST
  1

  9
$DIMALT
 70
     0
  9
$DIMALTD
 70
     2
  9
$DIMALTF
 40
25.4
  9
$DIMLFAC
 40
1.0
  9
$DIMTOFL
 70
     0
  9
$DIMTVP
 40
0.0
  9
$DIMTIX
 70
     0
  9
$DIMSOXD
 70
     0
  9
$DIMSAH
 70
     0
  9
$DIMBLK1
  1

  9
$DIMBLK2
  1

  9
$DIMSTYLE
  2
Standard
  9
$DIMCLRD
 70
     0
  9
$DIMCLRE
 70
     0
  9
$DIMCLRT
 70
     0
  9
$DIMTFAC
 40
1.0
  9
$DIMGAP
 40
0.09
  9
$DIMJUST
 70
     0
  9
$DIMSD1
 70
     0
  9
$DIMSD2
 70
     0
  9
$DIMTOLJ
 70
     1
  9
$DIMTZIN
 70
     0
  9
$DIMALTZ
 70
     0
  9
$DIMALTTZ
 70
     0
  9
$DIMUPT
 70
     0
  9
$DIMDEC
 70
     4
  9
$DIMTDEC
 70
     4
  9
$DIMALTU
 70
     2
  9
$DIMALTTD
 70
     2
  9
$DIMTXSTY
  7
Standard
  9
$DIMAUNIT
 70
     0
  9
$DIMADEC
 70
     0
  9
$DIMALTRND
 40
0.0
  9
$DIMAZIN
 70
     0
  9
$DIMDSEP
 70
    46
  9
$DIMATFIT
 70
     3
  9
$DIMFRAC
 70
     0
  9
$DIMLDRBLK
  1

  9
$DIMLUNIT
 70
     2
  9
$DIMLWD
 70
    -2
  9
$DIMLWE
 70
    -2
  9
$DIMTMOVE
 70
     2
  9
$LUNITS
 70
     2
  9
$LUPREC
 70
     3
  9
$SKETCHINC
 40
0.1
  9
$FILLETRAD
 40
0.5
  9
$AUNITS
 70
     0
  9
$AUPREC
 70
     0
  9
$MENU
  1
.
  9
$ELEVATION
 40
0.0
  9
$PELEVATION
 40
0.0
  9
$THICKNESS
 40
0.0
  9
$LIMCHECK
 70
     0
  9
$CHAMFERA
 40
0.5
  9
$CHAMFERB
 40
0.5
  9
$CHAMFERC
 40
1.0
  9
$CHAMFERD
 40
0.0
  9
$SKPOLY
 70
     0
  9
$TDCREATE
 40
2458198.734337708
  9
$TDUCREATE
 40
2458198.734337708
  9
$TDUPDATE
 40
2458198.73433772
  9
$TDUUPDATE
 40
2458198.73433772
  9
$TDINDWG
 40
0.0000000116
  9
$TDUSRTIMER
 40
0.0000000116
  9
$USRTIMER
 70
     1
  9
$ANGBASE
 50
0.0
  9
$ANGDIR
 70
     0
  9
$PDMODE
 70
     0
  9
$PDSIZE
 40
0.0
  9
$PLINEWID
 40
0.0
  9
$SPLFRAME
 70
     0
  9
$SPLINETYPE
 70
     6
  9
$SPLINESEGS
 70
     8
  9
$HANDSEED
  5
FF
  9
$SURFTAB1
 70
     6
  9
$SURFTAB2
 70
     6
  9
$SURFTYPE
 70
     6
  9
$SURFU
 70
     6
  9
$SURFV
 70
     6
  9
$UCSBASE
  2

  9
$UCSNAME
  2

  9
$UCSORG
 10
0.0
 20
0.0
 30
0.0
  9
$UCSXDIR
 10
1.0
 20
0.0
 30
0.0
  9
$UCSYDIR
 10
0.0
 20
1.0
 30
0.0
  9
$UCSORTHOREF
  2

  9
$UCSORTHOVIEW
 70
     0
  9
$UCSORGTOP
 10
0.0
 20
0.0
 30
0.0
  9
$UCSORGBOTTOM
 10
0.0
 20
0.0
 30
0.0
  9
$UCSORGLEFT
 10
0.0
 20
0.0
 30
0.0
  9
$UCSORGRIGHT
 10
0.0
 20
0.0
 30
0.0
  9
$UCSORGFRONT
 10
0.0
 20
0.0
 30
0.0
  9
$UCSORGBACK
 10
0.0
 20
0.0
 30
0.0
  9
$PUCSBASE
  2

  9
$PUCSNAME
  2

  9
$PUCSORG
 10
0.0
 20
0.0
 30
0.0
  9
$PUCSXDIR
 10
1.0
 20
0.0
 30
0.0
  9
$PUCSYDIR
 10
0.0
 20
1.0
 30
0.0
  9
$PUCSORTHOREF
  2

  9
$PUCSORTHOVIEW
 70
     0
  9
$PUCSORGTOP
 10
0.0
 20
0.0
 30
0.0
  9
$PUCSORGBOTTOM
 10
0.0
 20
0.0
 30
0.0
  9
$PUCSORGLEFT
 10
0.0
 20
0.0
 30
0.0
  9
$PUCSORGRIGHT
 10
0.0
 20
0.0
 30
0.0
  9
$PUCSORGFRONT
 10
0.0
 20
0.0
 30
0.0
  9
$PUCSORGBACK
 10
0.0
 20
0.0
 30
0.0
  9
$USERI1
 70
     0
  9
$USERI2
 70
     0
  9
$USERI3
 70
     0
  9
$USERI4
 70
     0
  9
$USERI5
 70
     0
  9
$USERR1
 40
0.0
  9
$USERR2
 40
0.0
  9
$USERR3
 40
0.0
  9
$USERR4
 40
0.0
  9
$USERR5
 40
0.0
  9
$WORLDVIEW
 70
     1
  9
$SHADEDGE
 70
     3
  9
$SHADEDIF
 70
    70
  9
$TILEMODE
 70
     1
  9
$MAXACTVP
 70
    64
  9
$PINSBASE
 10
0.0
 20
0.0
 30
0.0
  9
$PLIMCHECK
 70
     0
  9
$PEXTMIN
 10
1.000000000000000E+20
 20
1.000000000000000E+20
 30
1.000000000000000E+20
  9
$PEXTMAX
 10
-1.000000000000000E+20
 20
-1.000000000000000E+20
 30
-1.000000000000000E+20
  9
$PLIMMIN
 10
0.0
 20
0.0
  9
$PLIMMAX
 10
12.0
 20
9.0
  9
$UNITMODE
 70
     0
  9
$VISRETAIN
 70
     1
  9
$PLINEGEN
 70
     0
  9
$PSLTSCALE
 70
     1
  9
$TREEDEPTH
 70
  3020
  9
$CMLSTYLE
  2
Standard
  9
$CMLJUST
 70
     0
  9
$CMLSCALE
 40
1.0
  9
$PROXYGRAPHICS
 70
     1
  9
$MEASUREMENT
 70
     0
  9
$CELWEIGHT
370
    -1
  9
$ENDCAPS
280
     0
  9
$JOINSTYLE
280
     0
  9
$LWDISPLAY
290
     0
  9
$INSUNITS
 70
     4
  9
$HYPERLINKBASE
  1

  9
$STYLESHEET
  1

  9
$XEDIT
290
     1
  9
$CEPSNTYPE
380
     0
  9
$PSTYLEMODE
290
     1
  9
$FINGERPRINTGUID
  2
{5C366958-D231-4201-B528-1FDE77058876}
  9
$VERSIONGUID
  2
{FAEB1C32-E019-11D5-929B-00C0DF256EC4}
  9
$EXTNAMES
290
     1
  9
$PSVPSCALE
 40
0.0
  9
$OLESTARTUP
290
     0
  9
$SORTENTS
280
   127
  9
$INDEXCTL
280
     0
  9
$HIDETEXT
280
     1
  9
$XCLIPFRAME
290
     0
  9
$HALOGAP
280
     0
  9
$OBSCOLOR
 70
   257
  9
$OBSLTYPE
280
     0
  9
$INTERSECTIONDISPLAY
280
     0
  9
$INTERSECTIONCOLOR
 70
   257
  9
$DIMASSOC
280
     2
  9
$PROJECTNAME
  1

  0
ENDSEC
  0
SECTION
  2
CLASSES
  0
CLASS
  1
ACDBDICTIONARYWDFLT
  2
AcDbDictionaryWithDefault
  3
ObjectDBX Classes
 90
        0
 91
        4
280
     0
281
     0
  0
CLASS
  1
VISUALSTYLE
  2
AcDbVisualStyle
  3
ObjectDBX Classes
 90
     4095
 91
        4
280
     0
281
     0
  0
CLASS
  1
SCALE
  2
AcDbScale
  3
ObjectDBX Classes
 90
     1153
 91
        4
280
     0
281
     0
  0
CLASS
  1
DICTIONARYVAR
  2
AcDbDictionaryVar
  3
ObjectDBX Classes
 90
        0
 91
        4
280
     0
281
     0
  0
ENDSEC
  0
SECTION
  2
TABLES
  0
TABLE
  2
VPORT
  5
8
330
0
100
AcDbSymbolTable
 70
     1
  0
VPORT
  5
29
330
8
100
AcDbSymbolTableRecord
100
AcDbViewportTableRecord
  2
*Active
 70
     0
 10
0.0
 20
0.0
 11
1.0
 21
1.0
 12
-8.67711710474407
 22
0.6352523696855314
 13
0.0
 23
0.0
 14
0.5
 24
0.5
 15
0.5
 25
0.5
 16
0.0
 26
0.0
 36
1.0
 17
0.0
 27
0.0
 37
0.0
 40
276.1805776133151
 41
1.024334477864127
 42
50.0
 43
0.0
 44
0.0
 50
0.0
 51
0.0
 71
     0
 72
   100
 73
     1
 74
     3
 75
     0
 76
     0
 77
     0
 78
     0
281
     0
 65
     1
110
0.0
120
0.0
130
0.0
111
1.0
121
0.0
131
0.0
112
0.0
122
1.0
132
0.0
 79
     0
146
0.0
  0
ENDTAB
  0
TABLE
  2
LTYPE
  5
5
330
0
100
AcDbSymbolTable
 70
     1
  0
LTYPE
  5
14
330
5
100
AcDbSymbolTableRecord
100
AcDbLinetypeTableRecord
  2
ByBlock
 70
     0
  3

 72
    65
 73
     0
 40
0.0
  0
LTYPE
  5
15
330
5
100
AcDbSymbolTableRecord
100
AcDbLinetypeTableRecord
  2
ByLayer
 70
     0
  3

 72
    65
 73
     0
 40
0.0
  0
LTYPE
  5
16
330
5
100
AcDbSymbolTableRecord
100
AcDbLinetypeTableRecord
  2
Continuous
 70
     0
  3
Solid line
 72
    65
 73
     0
 40
0.0
  0
ENDTAB
  0
TABLE
  2
LAYER
  5
2
330
0
100
AcDbSymbolTable
 70
     6
  0
LAYER
  5
10
330
2
100
AcDbSymbolTableRecord
100
AcDbLayerTableRecord
  2
0
 70
     0
 62
     7
  6
Continuous
370
    -3
390
F
  0
LAYER
  5
3B
330
2
100
AcDbSymbolTableRecord
100
AcDbLayerTableRecord
  2
holes for build plate
 70
     0
 62
   150
  6
Continuous
370
    -3
390
F
  0
LAYER
  5
61
330
2
100
AcDbSymbolTableRecord
100
AcDbLayerTableRecord
  2
Defpoints
 70
     0
 62
     7
  6
Continuous
290
     0
370
    -3
390
F
  0
LAYER
  5
6E
330
2
100
AcDbSymbolTableRecord
100
AcDbLayerTableRecord
  2
suporte_GT2 belt
 70
     0
 62
     3
  6
Continuous
370
    -3
390
F
  0
LAYER
  5
7C
330
2
100
AcDbSymbolTableRecord
100
AcDbLayerTableRecord
  2
Default
 70
     0
 62
     7
  6
Continuous
370
    -3
390
F
  0
LAYER
  5
BA
330
2
100
AcDbSymbolTableRecord
100
AcDbLayerTableRecord
  2
Suportes_igus
 70
     0
 62
     1
  6
Continuous
370
    -3
390
F
  0
ENDTAB
  0
TABLE
  2
STYLE
  5
3
330
0
100
AcDbSymbolTable
 70
     2
  0
STYLE
  5
11
330
3
100
AcDbSymbolTableRecord
100
AcDbTextStyleTableRecord
  2
Standard
 70
     0
 40
0.0
 41
1.0
 50
0.0
 71
     0
 42
0.2
  3
txt
  4

  0
STYLE
  5
5F
330
3
100
AcDbSymbolTableRecord
100
AcDbTextStyleTableRecord
  2
Arial
 70
     0
 40
0.0
 41
1.0
 50
0.0
 71
     0
 42
0.0
  3

  4

1001
ACAD
1000
Arial
1071
      256
  0
ENDTAB
  0
TABLE
  2
VIEW
  5
6
330
0
100
AcDbSymbolTable
 70
     0
  0
ENDTAB
  0
TABLE
  2
UCS
  5
7
330
0
100
AcDbSymbolTable
 70
     0
  0
ENDTAB
  0
TABLE
  2
APPID
  5
9
330
0
100
AcDbSymbolTable
 70
     1
  0
APPID
  5
12
330
9
100
AcDbSymbolTableRecord
100
AcDbRegAppTableRecord
  2
ACAD
 70
     0
  0
ENDTAB
  0
TABLE
  2
DIMSTYLE
  5
A
330
0
100
AcDbSymbolTable
 70
     2
100
AcDbDimStyleTable
  0
DIMSTYLE
105
27
330
A
100
AcDbSymbolTableRecord
100
AcDbDimStyleTableRecord
  2
Standard
 70
     0
340
11
  0
DIMSTYLE
105
60
102
{ACAD_REACTORS
330
3C
330
6F
330
7D
330
8C
330
99
330
D7
102
}
330
A
100
AcDbSymbolTableRecord
100
AcDbDimStyleTableRecord
  2
Dimension Style 01
 70
     0
 40
5.0
 41
1.0
 42
0.5
 44
0.5
 73
     0
 77
     1
 78
     1
140
1.0
141
0.5
172
     1
174
     1
271
     0
284
     1
340
5F
  0
ENDTAB
  0
TABLE
  2
BLOCK_RECORD
  5
1
330
0
100
AcDbSymbolTable
 70
     7
  0
BLOCK_RECORD
  5
1F
330
1
100
AcDbSymbolTableRecord
100
AcDbBlockTableRecord
  2
*Model_Space
340
22
  0
BLOCK_RECORD
  5
1B
330
1
100
AcDbSymbolTableRecord
100
AcDbBlockTableRecord
  2
*Paper_Space
340
1E
  0
BLOCK_RECORD
  5
23
330
1
100
AcDbSymbolTableRecord
100
AcDbBlockTableRecord
  2
*Paper_Space0
340
26
  0
BLOCK_RECORD
  5
62
330
1
100
AcDbSymbolTableRecord
100
AcDbBlockTableRecord
  2
*D1
340
0
  0
BLOCK_RECORD
  5
70
330
1
100
AcDbSymbolTableRecord
100
AcDbBlockTableRecord
  2
*D2
340
0
  0
BLOCK_RECORD
  5
7E
330
1
100
AcDbSymbolTableRecord
100
AcDbBlockTableRecord
  2
*D3
340
0
  0
BLOCK_RECORD
  5
8D
330
1
100
AcDbSymbolTableRecord
100
AcDbBlockTableRecord
  2
*D4
340
0
  0
BLOCK_RECORD
  5
9A
330
1
100
AcDbSymbolTableRecord
100
AcDbBlockTableRecord
  2
*D5
340
0
  0
BLOCK_RECORD
  5
D8
330
1
100
AcDbSymbolTableRecord
100
AcDbBlockTableRecord
  2
*D6
340
0
  0
ENDTAB
  0
ENDSEC
  0
SECTION
  2
BLOCKS
  0
BLOCK
  5
20
330
1F
100
AcDbEntity
  8
0
100
AcDbBlockBegin
  2
*Model_Space
 70
     0
 10
0.0
 20
0.0
 30
0.0
  3
*Model_Space
  1

  0
ENDBLK
  5
21
330
1F
100
AcDbEntity
  8
0
100
AcDbBlockEnd
  0
BLOCK
  5
1C
330
1B
100
AcDbEntity
 67
     1
  8
0
100
AcDbBlockBegin
  2
*Paper_Space
 70
     0
 10
0.0
 20
0.0
 30
0.0
  3
*Paper_Space
  1

  0
ENDBLK
  5
1D
330
1B
100
AcDbEntity
 67
     1
  8
0
100
AcDbBlockEnd
  0
BLOCK
  5
24
330
23
100
AcDbEntity
  8
0
100
AcDbBlockBegin
  2
*Paper_Space0
 70
     0
 10
0.0
 20
0.0
 30
0.0
  3
*Paper_Space0
  1

  0
ENDBLK
  5
25
330
23
100
AcDbEntity
  8
0
100
AcDbBlockEnd
  0
BLOCK
  5
6C
330
62
100
AcDbEntity
  8
0
100
AcDbBlockBegin
  2
*D1
 70
     1
 10
0.0
 20
0.0
 30
0.0
  3
*D1
  1

  0
LINE
  5
63
330
62
100
AcDbEntity
  8
holes for build plate
 62
     0
370
    -2
100
AcDbLine
 10
61.76727879357326
 20
-91.6247451680212
 30
0.0
 11
88.51227879357326
 21
-91.6247451680212
 31
0.0
  0
LINE
  5
64
330
62
100
AcDbEntity
  8
holes for build plate
 62
     0
370
    -2
100
AcDbLine
 10
109.604024824212
 20
-108.6110581049968
 30
0.0
 11
113.4981786065084
 21
-111.7472287508365
 31
0.0
  0
LINE
  5
65
330
62
100
AcDbEntity
  8
holes for build plate
 62
     0
370
    -2
100
AcDbLine
 10
88.51227879357326
 20
-91.6247451680212
 30
0.0
 11
99.40135368383771
 21
-100.3943004912983
 31
0.0
  0
MTEXT
  5
66
330
62
100
AcDbEntity
  8
holes for build plate
 62
     0
100
AcDbMText
 10
79.44727879357326
 20
-88.4847451680212
 30
0.0
 40
5.0
 41
0.0
 71
     5
 72
     1
  1
\A1;%%c3X4
  7
Arial
 73
     1
 44
1.0
  0
LINE
  5
67
330
62
100
AcDbEntity
  8
holes for build plate
 62
     0
370
    -2
100
AcDbLine
 10
105.7098710419156
 20
-105.4748874591571
 30
0.0
 11
103.2955074661342
 21
-103.5304711371379
 31
0.0
  0
SOLID
  5
68
330
62
100
AcDbEntity
  8
holes for build plate
 62
     0
100
AcDbTrace
 10
110.126719931852
 20
-107.9620324746141
 30
0.0
 11
109.0813297165721
 21
-109.2600837353796
 31
0.0
 12
105.7098710419156
 22
-105.4748874591571
 32
0.0
 13
105.7098710419156
 23
-105.4748874591571
 33
0.0
  0
SOLID
  5
69
330
62
100
AcDbEntity
  8
holes for build plate
 62
     0
100
AcDbTrace
 10
98.87865857619776
 20
-101.043326121681
 30
0.0
 11
99.92404879147766
 21
-99.7452748609155
 31
0.0
 12
103.2955074661342
 22
-103.5304711371379
 32
0.0
 13
103.2955074661342
 23
-103.5304711371379
 33
0.0
  0
POINT
  5
6A
330
62
100
AcDbEntity
  8
Defpoints
 62
     0
100
AcDbPoint
 10
103.2955074661342
 20
-103.5304711371379
 30
0.0
  0
POINT
  5
6B
330
62
100
AcDbEntity
  8
Defpoints
 62
     0
100
AcDbPoint
 10
105.7098710419156
 20
-105.4748874591571
 30
0.0
  0
ENDBLK
  5
6D
330
62
100
AcDbEntity
  8
0
100
AcDbBlockEnd
  0
BLOCK
  5
7A
330
70
100
AcDbEntity
  8
0
100
AcDbBlockBegin
  2
*D2
 70
     1
 10
0.0
 20
0.0
 30
0.0
  3
*D2
  1

  0
LINE
  5
71
330
70
100
AcDbEntity
  8
suporte_GT2 belt
 62
     0
370
    -2
100
AcDbLine
 10
30.8105915178087
 20
-5.307510534531724
 30
0.0
 11
4.118091517808699
 21
-5.307510534531724
 31
0.0
  0
LINE
  5
72
330
70
100
AcDbEntity
  8
suporte_GT2 belt
 62
     0
370
    -2
100
AcDbLine
 10
-9.95188108606301
 20
8.314233231321447
 30
0.0
 11
-13.54417195435826
 21
11.79208405008331
 31
0.0
  0
LINE
  5
73
330
70
100
AcDbEntity
  8
suporte_GT2 belt
 62
     0
370
    -2
100
AcDbLine
 10
4.118091517808699
 20
-5.307510534531724
 30
0.0
 11
-1.304748976335804
 21
-0.0574261332300324
 31
0.0
  0
MTEXT
  5
74
330
70
100
AcDbEntity
  8
suporte_GT2 belt
 62
     0
100
AcDbMText
 10
13.1655915178087
 20
-2.167510534531725
 30
0.0
 40
5.0
 41
0.0
 71
     5
 72
     1
  1
\A1;%%c2X2
  7
Arial
 73
     1
 44
1.0
  0
LINE
  5
75
330
70
100
AcDbEntity
  8
suporte_GT2 belt
 62
     0
370
    -2
100
AcDbLine
 10
-6.359590217767756
 20
4.836382412559588
 30
0.0
 11
-4.897039844631057
 21
3.420424685531827
 31
0.0
  0
SOLID
  5
76
330
70
100
AcDbEntity
  8
suporte_GT2 belt
 62
     0
100
AcDbTrace
 10
-10.53152288918999
 20
7.715518086605572
 30
0.0
 11
-9.372239282936032
 21
8.912948376037322
 31
0.0
 12
-6.359590217767756
 22
4.836382412559588
 32
0.0
 13
-6.359590217767756
 23
4.836382412559588
 33
0.0
  0
SOLID
  5
77
330
70
100
AcDbEntity
  8
suporte_GT2 belt
 62
     0
100
AcDbTrace
 10
-0.7251071732088272
 20
0.5412890114858432
 30
0.0
 11
-1.88439077946278
 21
-0.6561412779459079
 31
0.0
 12
-4.897039844631057
 22
3.420424685531827
 32
0.0
 13
-4.897039844631057
 23
3.420424685531827
 33
0.0
  0
POINT
  5
78
330
70
100
AcDbEntity
  8
Defpoints
 62
     0
100
AcDbPoint
 10
-4.897039844631057
 20
3.420424685531827
 30
0.0
  0
POINT
  5
79
330
70
100
AcDbEntity
  8
Defpoints
 62
     0
100
AcDbPoint
 10
-6.359590217767756
 20
4.836382412559588
 30
0.0
  0
ENDBLK
  5
7B
330
70
100
AcDbEntity
  8
0
100
AcDbBlockEnd
  0
BLOCK
  5
88
330
7E
100
AcDbEntity
  8
0
100
AcDbBlockBegin
  2
*D3
 70
     1
 10
0.0
 20
0.0
 30
0.0
  3
*D3
  1

  0
LINE
  5
7F
330
7E
100
AcDbEntity
  8
Default
 62
     0
370
    -2
100
AcDbLine
 10
80.78758449606568
 20
13.96890433128997
 30
0.0
 11
94.77508449606567
 21
13.96890433128997
 31
0.0
  0
LINE
  5
80
330
7E
100
AcDbEntity
  8
Default
 62
     0
370
    -2
100
AcDbLine
 10
120.1158154126127
 20
-2.408325003811804
 30
0.0
 11
124.3151556097889
 21
-5.122278192129592
 31
0.0
  0
LINE
  5
81
330
7E
100
AcDbEntity
  8
Default
 62
     0
370
    -2
100
AcDbLine
 10
94.77508449606567
 20
13.96890433128997
 30
0.0
 11
104.1583156943801
 21
7.904701615703233
 31
0.0
  0
MTEXT
  5
82
330
7E
100
AcDbEntity
  8
Default
 62
     0
100
AcDbMText
 10
89.96258449606567
 20
17.10890433128997
 30
0.0
 40
5.0
 41
0.0
 71
     5
 72
     1
  1
\A1;%%c9
  7
Arial
 73
     1
 44
1.0
  0
LINE
  5
83
330
7E
100
AcDbEntity
  8
Default
 62
     0
370
    -2
100
AcDbLine
 10
115.9164752154365
 20
0.3056281845059834
 30
0.0
 11
108.3576558915563
 21
5.190748427385445
 31
0.0
  0
SOLID
  5
84
330
7E
100
AcDbEntity
  8
Default
 62
     0
100
AcDbTrace
 10
120.568140943999
 20
-1.708434970949107
 30
0.0
 11
119.6634898812264
 21
-3.108215036674502
 31
0.0
 12
115.9164752154365
 22
0.3056281845059834
 32
0.0
 13
115.9164752154365
 23
0.3056281845059834
 33
0.0
  0
SOLID
  5
85
330
7E
100
AcDbEntity
  8
Default
 62
     0
100
AcDbTrace
 10
103.7059901629938
 20
7.204811582840536
 30
0.0
 11
104.6106412257664
 21
8.60459164856593
 31
0.0
 12
108.3576558915563
 22
5.190748427385445
 32
0.0
 13
108.3576558915563
 23
5.190748427385445
 33
0.0
  0
POINT
  5
86
330
7E
100
AcDbEntity
  8
Defpoints
 62
     0
100
AcDbPoint
 10
108.3576558915563
 20
5.190748427385445
 30
0.0
  0
POINT
  5
87
330
7E
100
AcDbEntity
  8
Defpoints
 62
     0
100
AcDbPoint
 10
115.9164752154365
 20
0.3056281845059834
 30
0.0
  0
ENDBLK
  5
89
330
7E
100
AcDbEntity
  8
0
100
AcDbBlockEnd
  0
BLOCK
  5
97
330
8D
100
AcDbEntity
  8
0
100
AcDbBlockBegin
  2
*D4
 70
     1
 10
0.0
 20
0.0
 30
0.0
  3
*D4
  1

  0
LINE
  5
8E
330
8D
100
AcDbEntity
  8
Default
 62
     0
370
    -2
100
AcDbLine
 10
-132.4999847412109
 20
-120.0138549804688
 30
0.0
 11
-144.2892189506991
 21
-120.0138549804688
 31
0.0
  0
LINE
  5
8F
330
8D
100
AcDbEntity
  8
Default
 62
     0
370
    -2
100
AcDbLine
 10
-132.4999847412109
 20
120.0138549804688
 30
0.0
 11
-144.2892189506991
 21
120.0138549804688
 31
0.0
  0
LINE
  5
90
330
8D
100
AcDbEntity
  8
Default
 62
     0
370
    -2
100
AcDbLine
 10
-141.7892189506991
 20
-115.0138549804688
 30
0.0
 11
-141.7892189506991
 21
115.0138549804688
 31
0.0
  0
SOLID
  5
91
330
8D
100
AcDbEntity
  8
Default
 62
     0
100
AcDbTrace
 10
-142.6225522840325
 20
-115.0138549804688
 30
0.0
 11
-140.9558856173658
 21
-115.0138549804688
 31
0.0
 12
-141.7892189506991
 22
-120.0138549804688
 32
0.0
 13
-141.7892189506991
 23
-120.0138549804688
 33
0.0
  0
SOLID
  5
92
330
8D
100
AcDbEntity
  8
Default
 62
     0
100
AcDbTrace
 10
-140.9558856173657
 20
115.0138549804688
 30
0.0
 11
-142.6225522840324
 21
115.0138549804688
 31
0.0
 12
-141.7892189506991
 22
120.0138549804688
 32
0.0
 13
-141.7892189506991
 23
120.0138549804688
 33
0.0
  0
MTEXT
  5
93
330
8D
100
AcDbEntity
  8
Default
 62
     0
100
AcDbMText
 10
-144.7917189506991
 20
0.0000000000000004
 30
0.0
 40
5.0
 41
0.0
 71
     5
 72
     1
  1
\A1;240
  7
Arial
 11
1.184101178777626E-16
 21
1.0
 31
0.0
 73
     1
 44
1.0
  0
POINT
  5
94
330
8D
100
AcDbEntity
  8
Defpoints
 62
     0
100
AcDbPoint
 10
-129.9999847412109
 20
-120.0138549804688
 30
0.0
  0
POINT
  5
95
330
8D
100
AcDbEntity
  8
Defpoints
 62
     0
100
AcDbPoint
 10
-129.9999847412109
 20
120.0138549804688
 30
0.0
  0
POINT
  5
96
330
8D
100
AcDbEntity
  8
Defpoints
 62
     0
100
AcDbPoint
 10
-141.7892189506991
 20
120.0138549804688
 30
0.0
  0
ENDBLK
  5
98
330
8D
100
AcDbEntity
  8
0
100
AcDbBlockEnd
  0
BLOCK
  5
A4
330
9A
100
AcDbEntity
  8
0
100
AcDbBlockBegin
  2
*D5
 70
     1
 10
0.0
 20
0.0
 30
0.0
  3
*D5
  1

  0
LINE
  5
9B
330
9A
100
AcDbEntity
  8
Default
 62
     0
370
    -2
100
AcDbLine
 10
-129.9999847412109
 20
-122.5138549804688
 30
0.0
 11
-129.9999847412109
 21
-134.7473837152728
 31
0.0
  0
LINE
  5
9C
330
9A
100
AcDbEntity
  8
Default
 62
     0
370
    -2
100
AcDbLine
 10
129.9999847412109
 20
-122.5138549804688
 30
0.0
 11
129.9999847412109
 21
-134.7473837152728
 31
0.0
  0
LINE
  5
9D
330
9A
100
AcDbEntity
  8
Default
 62
     0
370
    -2
100
AcDbLine
 10
-124.9999847412109
 20
-132.2473837152728
 30
0.0
 11
124.9999847412109
 21
-132.2473837152728
 31
0.0
  0
SOLID
  5
9E
330
9A
100
AcDbEntity
  8
Default
 62
     0
100
AcDbTrace
 10
-124.9999847412109
 20
-131.4140503819395
 30
0.0
 11
-124.9999847412109
 21
-133.0807170486062
 31
0.0
 12
-129.9999847412109
 22
-132.2473837152728
 32
0.0
 13
-129.9999847412109
 23
-132.2473837152728
 33
0.0
  0
SOLID
  5
9F
330
9A
100
AcDbEntity
  8
Default
 62
     0
100
AcDbTrace
 10
124.9999847412109
 20
-133.0807170486062
 30
0.0
 11
124.9999847412109
 21
-131.4140503819395
 31
0.0
 12
129.9999847412109
 22
-132.2473837152728
 32
0.0
 13
129.9999847412109
 23
-132.2473837152728
 33
0.0
  0
MTEXT
  5
A0
330
9A
100
AcDbEntity
  8
Default
 62
     0
100
AcDbMText
 10
0.0
 20
-129.2448837152728
 30
0.0
 40
5.0
 41
0.0
 71
     5
 72
     1
  1
\A1;260
  7
Arial
 73
     1
 44
1.0
  0
POINT
  5
A1
330
9A
100
AcDbEntity
  8
Defpoints
 62
     0
100
AcDbPoint
 10
-129.9999847412109
 20
-120.0138549804688
 30
0.0
  0
POINT
  5
A2
330
9A
100
AcDbEntity
  8
Defpoints
 62
     0
100
AcDbPoint
 10
129.9999847412109
 20
-120.0138549804688
 30
0.0
  0
POINT
  5
A3
330
9A
100
AcDbEntity
  8
Defpoints
 62
     0
100
AcDbPoint
 10
129.9999847412109
 20
-132.2473837152728
 30
0.0
  0
ENDBLK
  5
A5
330
9A
100
AcDbEntity
  8
0
100
AcDbBlockEnd
  0
BLOCK
  5
E2
330
D8
100
AcDbEntity
  8
0
100
AcDbBlockBegin
  2
*D6
 70
     1
 10
0.0
 20
0.0
 30
0.0
  3
*D6
  1

  0
LINE
  5
D9
330
D8
100
AcDbEntity
  8
Suportes_igus
 62
     0
370
    -2
100
AcDbLine
 10
-24.39651294577967
 20
-29.25688347371212
 30
0.0
 11
-59.81901294577966
 21
-29.25688347371212
 31
0.0
  0
LINE
  5
DA
330
D8
100
AcDbEntity
  8
Suportes_igus
 62
     0
370
    -2
100
AcDbLine
 10
-81.59992960303082
 20
-2.609131711047357
 30
0.0
 11
-84.76422199956089
 21
1.262205736045313
 31
0.0
  0
LINE
  5
DB
330
D8
100
AcDbEntity
  8
Suportes_igus
 62
     0
370
    -2
100
AcDbLine
 10
-59.81901294577966
 20
-29.25688347371212
 30
0.0
 11
-72.42348540904648
 21
-13.83600571241465
 31
0.0
  0
MTEXT
  5
DC
330
D8
100
AcDbEntity
  8
Suportes_igus
 62
     0
100
AcDbMText
 10
-47.86151294577966
 20
-26.11688347371212
 30
0.0
 40
5.0
 41
0.0
 71
     5
 72
     1
  1
\A1;%%c4 X12 
  7
Arial
 73
     1
 44
1.0
  0
LINE
  5
DD
330
D8
100
AcDbEntity
  8
Suportes_igus
 62
     0
370
    -2
100
AcDbLine
 10
-78.43563720650074
 20
-6.480469158140027
 30
0.0
 11
-75.58777780557655
 21
-9.964668265321984
 31
0.0
  0
SOLID
  5
DE
330
D8
100
AcDbEntity
  8
Suportes_igus
 62
     0
100
AcDbTrace
 10
-82.24515251087959
 20
-3.136513777135701
 30
0.0
 11
-80.95470669518204
 21
-2.081749644959012
 31
0.0
 12
-78.43563720650074
 22
-6.480469158140027
 32
0.0
 13
-78.43563720650074
 23
-6.480469158140027
 33
0.0
  0
SOLID
  5
DF
330
D8
100
AcDbEntity
  8
Suportes_igus
 62
     0
100
AcDbTrace
 10
-71.7782625011977
 20
-13.30862364632631
 30
0.0
 11
-73.06870831689525
 21
-14.363387778503
 31
0.0
 12
-75.58777780557655
 22
-9.964668265321984
 32
0.0
 13
-75.58777780557655
 23
-9.964668265321984
 33
0.0
  0
POINT
  5
E0
330
D8
100
AcDbEntity
  8
Defpoints
 62
     0
100
AcDbPoint
 10
-75.58777780557655
 20
-9.964668265321984
 30
0.0
  0
POINT
  5
E1
330
D8
100
AcDbEntity
  8
Defpoints
 62
     0
100
AcDbPoint
 10
-78.43563720650074
 20
-6.480469158140027
 30
0.0
  0
ENDBLK
  5
E3
330
D8
100
AcDbEntity
  8
0
100
AcDbBlockEnd
  0
ENDSEC
  0
SECTION
  2
ENTITIES
  0
DIMENSION
  5
3C
330
1F
100
AcDbEntity
  8
holes for build plate
100
AcDbDimension
  2
*D1
 10
105.7098710419156
 20
-105.4748874591571
 30
0.0
 11
79.44727879357326
 21
-91.6247451680212
 31
0.0
 70
   163
  1
<>X4
 71
     5
 42
3.099984888575233
  3
Dimension Style 01
100
AcDbDiametricDimension
 15
103.2955074661342
 25
-103.5304711371379
 35
0.0
 40
0.0
1001
ACAD
1000
DSTYLE
1002
{
1070
   279
1070
     1
1002
}
  0
DIMENSION
  5
6F
330
1F
100
AcDbEntity
  8
suporte_GT2 belt
100
AcDbDimension
  2
*D2
 10
-6.359590217767756
 20
4.836382412559588
 30
0.0
 11
13.1655915178087
 21
-5.307510534531724
 31
0.0
 70
   163
  1
<>X2
 71
     5
 42
2.035679218023292
  3
Dimension Style 01
100
AcDbDiametricDimension
 15
-4.897039844631057
 25
3.420424685531827
 35
0.0
 40
0.0
1001
ACAD
1000
DSTYLE
1002
{
1070
   279
1070
     1
1002
}
  0
DIMENSION
  5
7D
330
1F
100
AcDbEntity
  8
Default
100
AcDbDimension
  2
*D3
 10
115.9164752154365
 20
0.3056281845059834
 30
0.0000038593942766
 11
89.96258449606567
 21
13.96890433128997
 31
0.0
 70
   163
  1
<>
 71
     5
 42
9.000008297688154
  3
Dimension Style 01
100
AcDbDiametricDimension
 15
108.3576558915563
 25
5.190748427385445
 35
0.0000038593942766
 40
0.0
1001
ACAD
1000
DSTYLE
1002
{
1070
   279
1070
     1
1002
}
  0
CIRCLE
  5
8A
330
1F
100
AcDbEntity
  8
Default
100
AcDbCircle
 10
112.1370655534842
 20
2.748188305986224
 30
0.0000502970077968
 40
4.500004148845462
210
4.334375584020010E-7
220
-7.878625742033924E-7
230
0.9999999999995957
  0
MTEXT
  5
8B
330
1F
100
AcDbEntity
  8
Default
100
AcDbMText
 10
-99.44370002327801
 20
122.5145551213106
 30
0.0
 40
10.0
 41
219.4578313253012
 71
     7
 72
     1
  1
\fArial;Print These in a A3 sheet of paper 
 73
     2
 44
0.963855421686747
  0
DIMENSION
  5
8C
330
1F
100
AcDbEntity
  8
Default
100
AcDbDimension
  2
*D4
 10
-141.7892189506991
 20
120.0138549804688
 30
0.0
 11
-144.7917189506991
 21
0.0000000000000004
 31
0.0
 70
    32
  1
<>
 71
     5
 42
240.0277099609375
  3
Dimension Style 01
100
AcDbAlignedDimension
 13
-129.9999847412109
 23
-120.0138549804688
 33
0.0
 14
-129.9999847412109
 24
120.0138549804688
 34
0.0
 50
90.0
100
AcDbRotatedDimension
1001
ACAD
1000
DSTYLE
1002
{
1070
   279
1070
     1
1002
}
  0
DIMENSION
  5
99
330
1F
100
AcDbEntity
  8
Default
100
AcDbDimension
  2
*D5
 10
129.9999847412109
 20
-132.2473837152728
 30
0.0
 11
0.0
 21
-129.2448837152728
 31
0.0
 70
    32
  1
<>
 71
     5
 42
259.9999694824219
  3
Dimension Style 01
100
AcDbAlignedDimension
 13
-129.9999847412109
 23
-120.0138549804688
 33
0.0
 14
129.9999847412109
 24
-120.0138549804688
 34
0.0
100
AcDbRotatedDimension
1001
ACAD
1000
DSTYLE
1002
{
1070
   279
1070
     1
1002
}
  0
CIRCLE
  5
A6
330
1F
100
AcDbEntity
  8
holes for build plate
100
AcDbCircle
 10
104.5026892540249
 20
-104.5026792981475
 30
0.0
 40
1.549992444287589
  0
CIRCLE
  5
A7
330
1F
100
AcDbEntity
  8
holes for build plate
100
AcDbCircle
 10
104.5026752223793
 20
104.5028435010655
 30
0.0
 40
1.549999484768459
  0
CIRCLE
  5
A8
330
1F
100
AcDbEntity
  8
holes for build plate
100
AcDbCircle
 10
-104.5029180842853
 20
104.5029381418814
 30
0.0
 40
1.549986410192977
  0
CIRCLE
  5
A9
330
1F
100
AcDbEntity
  8
holes for build plate
100
AcDbCircle
 10
-104.5029430230306
 20
-104.502672439862
 30
0.0
 40
1.550005203797757
  0
LINE
  5
AA
330
1F
100
AcDbEntity
  8
holes for build plate
100
AcDbLine
 10
-100.5029180842853
 20
104.5029381418814
 30
0.0
 11
-108.5029180842853
 21
104.5029381418814
 31
0.0
  0
LINE
  5
AB
330
1F
100
AcDbEntity
  8
holes for build plate
100
AcDbLine
 10
-104.5029180842853
 20
100.5029381418814
 30
0.0
 11
-104.5029180842853
 21
108.5029381418814
 31
0.0
  0
LINE
  5
AC
330
1F
100
AcDbEntity
  8
holes for build plate
100
AcDbLine
 10
-100.5029430230306
 20
-104.502672439862
 30
0.0
 11
-108.5029430230306
 21
-104.502672439862
 31
0.0
  0
LINE
  5
AD
330
1F
100
AcDbEntity
  8
holes for build plate
100
AcDbLine
 10
-104.5029430230306
 20
-108.502672439862
 30
0.0
 11
-104.5029430230306
 21
-100.502672439862
 31
0.0
  0
LINE
  5
AE
330
1F
100
AcDbEntity
  8
holes for build plate
100
AcDbLine
 10
108.5026892540249
 20
-104.5026792981475
 30
0.0
 11
100.5026892540249
 21
-104.5026792981475
 31
0.0
  0
LINE
  5
AF
330
1F
100
AcDbEntity
  8
holes for build plate
100
AcDbLine
 10
104.5026892540249
 20
-108.5026792981475
 30
0.0
 11
104.5026892540249
 21
-100.5026792981475
 31
0.0
  0
LINE
  5
B0
330
1F
100
AcDbEntity
  8
holes for build plate
100
AcDbLine
 10
108.5026892540249
 20
104.5029381418814
 30
0.0
 11
100.5026892540249
 21
104.5029381418814
 31
0.0
  0
LINE
  5
B1
330
1F
100
AcDbEntity
  8
holes for build plate
100
AcDbLine
 10
104.5026892540249
 20
100.5029381418814
 30
0.0
 11
104.5026892540249
 21
108.5029381418814
 31
0.0
  0
LINE
  5
B2
330
1F
100
AcDbEntity
  8
holes for build plate
100
AcDbLine
 10
104.5026892540249
 20
100.5029381418814
 30
0.0
 11
104.5026892540249
 21
108.5029381418814
 31
0.0
  0
LINE
  5
B3
330
1F
100
AcDbEntity
  8
holes for build plate
100
AcDbLine
 10
108.5026892540249
 20
104.5029381418814
 30
0.0
 11
100.5026892540249
 21
104.5029381418814
 31
0.0
  0
LINE
  5
B4
330
1F
100
AcDbEntity
  8
holes for build plate
100
AcDbLine
 10
104.5026892540249
 20
-108.5026792981475
 30
0.0
 11
104.5026892540249
 21
-100.5026792981475
 31
0.0
  0
LINE
  5
B5
330
1F
100
AcDbEntity
  8
holes for build plate
100
AcDbLine
 10
108.5026892540249
 20
-104.5026792981475
 30
0.0
 11
100.5026892540249
 21
-104.5026792981475
 31
0.0
  0
LINE
  5
B6
330
1F
100
AcDbEntity
  8
holes for build plate
100
AcDbLine
 10
-104.5029430230306
 20
-108.502672439862
 30
0.0
 11
-104.5029430230306
 21
-100.502672439862
 31
0.0
  0
LINE
  5
B7
330
1F
100
AcDbEntity
  8
holes for build plate
100
AcDbLine
 10
-100.5029430230306
 20
-104.502672439862
 30
0.0
 11
-108.5029430230306
 21
-104.502672439862
 31
0.0
  0
LINE
  5
B8
330
1F
100
AcDbEntity
  8
holes for build plate
100
AcDbLine
 10
-104.5029180842853
 20
100.5029381418814
 30
0.0
 11
-104.5029180842853
 21
108.5029381418814
 31
0.0
  0
LINE
  5
B9
330
1F
100
AcDbEntity
  8
holes for build plate
100
AcDbLine
 10
-100.5029180842853
 20
104.5029381418814
 30
0.0
 11
-108.5029180842853
 21
104.5029381418814
 31
0.0
  0
LINE
  5
BB
330
1F
100
AcDbEntity
  8
Suportes_igus
100
AcDbLine
 10
74.69009557282851
 20
-67.83373833827318
 30
0.0
 11
74.69009557282851
 21
-59.83373833827319
 31
0.0
  0
LINE
  5
BC
330
1F
100
AcDbEntity
  8
Suportes_igus
100
AcDbLine
 10
78.69009557282851
 20
-63.83373833827319
 30
0.0
 11
70.69009557282851
 21
-63.83373833827319
 31
0.0
  0
LINE
  5
BD
330
1F
100
AcDbEntity
  8
Suportes_igus
100
AcDbLine
 10
99.68692788700798
 20
-67.83373269657835
 30
0.0
 11
99.68692788700798
 21
-59.83373269657836
 31
0.0
  0
LINE
  5
BE
330
1F
100
AcDbEntity
  8
Suportes_igus
100
AcDbLine
 10
103.686927887008
 20
-63.83373269657836
 30
0.0
 11
95.68692788700798
 21
-63.83373269657836
 31
0.0
  0
LINE
  5
BF
330
1F
100
AcDbEntity
  8
Suportes_igus
100
AcDbLine
 10
99.68694387857573
 20
-49.83374631935062
 30
0.0
 11
99.68694387857573
 21
-41.83374631935062
 31
0.0
  0
LINE
  5
C0
330
1F
100
AcDbEntity
  8
Suportes_igus
100
AcDbLine
 10
103.6869438785757
 20
-45.83374631935062
 30
0.0
 11
95.68694387857573
 21
-45.83374631935062
 31
0.0
  0
LINE
  5
C1
330
1F
100
AcDbEntity
  8
Suportes_igus
100
AcDbLine
 10
74.6901058634017
 20
-49.83373624706787
 30
0.0
 11
74.6901058634017
 21
-41.83373624706787
 31
0.0
  0
LINE
  5
C2
330
1F
100
AcDbEntity
  8
Suportes_igus
100
AcDbLine
 10
78.6901058634017
 20
-45.83373624706787
 30
0.0
 11
70.6901058634017
 21
-45.83373624706787
 31
0.0
  0
LINE
  5
C3
330
1F
100
AcDbEntity
  8
Suportes_igus
100
AcDbLine
 10
-99.86870431830778
 20
-12.91792295156137
 30
0.0
 11
-99.86870431830778
 21
-4.917922951561366
 31
0.0
  0
LINE
  5
C4
330
1F
100
AcDbEntity
  8
Suportes_igus
100
AcDbLine
 10
-95.86870431830778
 20
-8.917922951561366
 30
0.0
 11
-103.8687043183078
 21
-8.917922951561366
 31
0.0
  0
LINE
  5
C5
330
1F
100
AcDbEntity
  8
Suportes_igus
100
AcDbLine
 10
-99.868690517338
 20
5.082130405513453
 30
0.0
 11
-99.868690517338
 21
13.08213040551345
 31
0.0
  0
LINE
  5
C6
330
1F
100
AcDbEntity
  8
Suportes_igus
100
AcDbLine
 10
-95.868690517338
 20
9.082130405513453
 30
0.0
 11
-103.868690517338
 21
9.082130405513453
 31
0.0
  0
LINE
  5
C7
330
1F
100
AcDbEntity
  8
Suportes_igus
100
AcDbLine
 10
-77.01170323640105
 20
5.77747181720553
 30
0.0
 11
-77.01170323640105
 21
13.77747181720553
 31
0.0
  0
LINE
  5
C8
330
1F
100
AcDbEntity
  8
Suportes_igus
100
AcDbLine
 10
-73.01170323640105
 20
9.77747181720553
 30
0.0
 11
-81.01170323640105
 21
9.77747181720553
 31
0.0
  0
LINE
  5
C9
330
1F
100
AcDbEntity
  8
Suportes_igus
100
AcDbLine
 10
74.69009856614878
 20
60.17610625657858
 30
0.0
 11
74.69009856614878
 21
68.17610625657858
 31
0.0
  0
LINE
  5
CA
330
1F
100
AcDbEntity
  8
Suportes_igus
100
AcDbLine
 10
78.69009856614878
 20
64.17610625657858
 30
0.0
 11
70.69009856614878
 21
64.17610625657858
 31
0.0
  0
LINE
  5
CB
330
1F
100
AcDbEntity
  8
Suportes_igus
100
AcDbLine
 10
99.68695859441357
 20
60.1761763726297
 30
0.0
 11
99.68695859441357
 21
68.1761763726297
 31
0.0
  0
LINE
  5
CC
330
1F
100
AcDbEntity
  8
Suportes_igus
100
AcDbLine
 10
103.6869585944136
 20
64.1761763726297
 30
0.0
 11
95.68695859441357
 21
64.1761763726297
 31
0.0
  0
LINE
  5
CD
330
1F
100
AcDbEntity
  8
Suportes_igus
100
AcDbLine
 10
99.68695432477597
 20
42.17613584369315
 30
0.0
 11
99.68695432477597
 21
50.17613584369315
 31
0.0
  0
LINE
  5
CE
330
1F
100
AcDbEntity
  8
Suportes_igus
100
AcDbLine
 10
103.686954324776
 20
46.17613584369315
 30
0.0
 11
95.68695432477597
 21
46.17613584369315
 31
0.0
  0
LINE
  5
CF
330
1F
100
AcDbEntity
  8
Suportes_igus
100
AcDbLine
 10
74.69010925292969
 20
42.1761089059471
 30
0.0
 11
74.69010925292969
 21
50.1761089059471
 31
0.0
  0
LINE
  5
D0
330
1F
100
AcDbEntity
  8
Suportes_igus
100
AcDbLine
 10
78.69010925292969
 20
46.1761089059471
 30
0.0
 11
70.69010925292969
 21
46.1761089059471
 31
0.0
  0
LINE
  5
D1
330
1F
100
AcDbEntity
  8
suporte_GT2 belt
100
AcDbLine
 10
-5.628315031199406
 20
0.1284035490457072
 30
0.0
 11
-5.628315031199406
 21
8.128403549045707
 31
0.0
  0
LINE
  5
D2
330
1F
100
AcDbEntity
  8
suporte_GT2 belt
100
AcDbLine
 10
-1.628315031199406
 20
4.128403549045707
 30
0.0
 11
-9.628315031199406
 21
4.128403549045707
 31
0.0
  0
LINE
  5
D3
330
1F
100
AcDbEntity
  8
suporte_GT2 belt
100
AcDbLine
 10
-5.62835693359375
 20
40.94690024511163
 30
0.0
 11
-5.62835693359375
 21
48.94690024511163
 31
0.0
  0
LINE
  5
D4
330
1F
100
AcDbEntity
  8
suporte_GT2 belt
100
AcDbLine
 10
-1.62835693359375
 20
44.94690024511163
 30
0.0
 11
-9.62835693359375
 21
44.94690024511163
 31
0.0
  0
CIRCLE
  5
D5
330
1F
100
AcDbEntity
  8
suporte_GT2 belt
100
AcDbCircle
 10
-5.62835693359375
 20
44.94690024511163
 30
0.0
 40
1.01784596452703
  0
CIRCLE
  5
D6
330
1F
100
AcDbEntity
  8
suporte_GT2 belt
100
AcDbCircle
 10
-5.628315031199406
 20
4.128403549045706
 30
0.0
 40
1.017839609011645
  0
DIMENSION
  5
D7
330
1F
100
AcDbEntity
  8
Suportes_igus
100
AcDbDimension
  2
*D6
 10
-78.43563720650074
 20
-6.480469158140027
 30
0.0
 11
-47.86151294577967
 21
-29.25688347371212
 31
0.0
 70
   163
  1
<> X12 
 71
     5
 42
4.499994065098292
  3
Dimension Style 01
100
AcDbDiametricDimension
 15
-75.58777780557655
 25
-9.964668265321984
 35
0.0
 40
0.0
1001
ACAD
1000
DSTYLE
1002
{
1070
   279
1070
     1
1002
}
  0
CIRCLE
  5
E4
330
1F
100
AcDbEntity
  8
Suportes_igus
100
AcDbCircle
 10
-77.01170750603865
 20
-8.222568711731022
 30
0.0
 40
2.249997032549131
  0
CIRCLE
  5
E5
330
1F
100
AcDbEntity
  8
Suportes_igus
100
AcDbCircle
 10
-77.01170323640105
 20
9.77747181720553
 30
0.0
 40
2.249956334638536
  0
POLYLINE
  5
E6
330
1F
100
AcDbEntity
  8
Default
100
AcDb2dPolyline
 66
     1
 10
0.0
 20
0.0
 30
0.0
  0
VERTEX
  5
E7
330
E6
100
AcDbEntity
  8
Default
100
AcDbVertex
100
AcDb2dVertex
 10
129.9999847412109
 20
-120.0138549804688
 30
0.0
  0
VERTEX
  5
E8
330
E6
100
AcDbEntity
  8
Default
100
AcDbVertex
100
AcDb2dVertex
 10
129.9999847412109
 20
120.0138549804688
 30
0.0
  0
VERTEX
  5
E9
330
E6
100
AcDbEntity
  8
Default
100
AcDbVertex
100
AcDb2dVertex
 10
-129.9999847412109
 20
120.0138549804688
 30
0.0
  0
VERTEX
  5
EA
330
E6
100
AcDbEntity
  8
Default
100
AcDbVertex
100
AcDb2dVertex
 10
-129.9999847412109
 20
-120.0138549804688
 30
0.0
  0
VERTEX
  5
EB
330
E6
100
AcDbEntity
  8
Default
100
AcDbVertex
100
AcDb2dVertex
 10
129.9999847412109
 20
-120.0138549804688
 30
0.0
  0
SEQEND
  5
EC
330
E6
100
AcDbEntity
  8
Default
  0
CIRCLE
  5
ED
330
1F
100
AcDbEntity
  8
holes for build plate
100
AcDbCircle
 10
-104.5029430230306
 20
-104.502672439862
 30
0.0
 40
1.550005203797757
  0
CIRCLE
  5
EE
330
1F
100
AcDbEntity
  8
Suportes_igus
100
AcDbCircle
 10
-99.86870431830778
 20
-8.917922951561366
 30
0.0
 40
2.250011542630816
  0
CIRCLE
  5
EF
330
1F
100
AcDbEntity
  8
Suportes_igus
100
AcDbCircle
 10
-99.868690517338
 20
9.082130405513453
 30
0.0
 40
2.25003173967881
  0
CIRCLE
  5
F0
330
1F
100
AcDbEntity
  8
holes for build plate
100
AcDbCircle
 10
-104.5029180842853
 20
104.5029381418814
 30
0.0
 40
1.549986410192977
  0
CIRCLE
  5
F1
330
1F
100
AcDbEntity
  8
holes for build plate
100
AcDbCircle
 10
104.5026752223793
 20
104.5028435010655
 30
0.0
 40
1.549999484768459
  0
CIRCLE
  5
F2
330
1F
100
AcDbEntity
  8
holes for build plate
100
AcDbCircle
 10
104.5026892540249
 20
-104.5026792981475
 30
0.0
 40
1.549992444287589
  0
CIRCLE
  5
F3
330
1F
100
AcDbEntity
  8
Suportes_igus
100
AcDbCircle
 10
99.68692788700798
 20
-63.83373269657835
 30
0.0
 40
2.249992462215939
  0
CIRCLE
  5
F4
330
1F
100
AcDbEntity
  8
Suportes_igus
100
AcDbCircle
 10
74.69009557282851
 20
-63.83373833827318
 30
0.0
 40
2.249997301586999
  0
CIRCLE
  5
F5
330
1F
100
AcDbEntity
  8
Suportes_igus
100
AcDbCircle
 10
74.6901058634017
 20
-45.83373624706786
 30
0.0
 40
2.249996012695358
  0
CIRCLE
  5
F6
330
1F
100
AcDbEntity
  8
Suportes_igus
100
AcDbCircle
 10
99.68694387857573
 20
-45.83374631935061
 30
0.0
 40
2.250000686431979
  0
CIRCLE
  5
F7
330
1F
100
AcDbEntity
  8
Suportes_igus
100
AcDbCircle
 10
99.68695432477597
 20
46.17613584369315
 30
0.0
 40
2.249997032549131
  0
CIRCLE
  5
F8
330
1F
100
AcDbEntity
  8
Suportes_igus
100
AcDbCircle
 10
74.69010925292969
 20
46.1761089059471
 30
0.0
 40
2.249991349143364
  0
CIRCLE
  5
F9
330
1F
100
AcDbEntity
  8
Suportes_igus
100
AcDbCircle
 10
74.69009856614878
 20
64.17610625657858
 30
0.0
 40
2.249990566491022
  0
CIRCLE
  5
FA
330
1F
100
AcDbEntity
  8
Suportes_igus
100
AcDbCircle
 10
99.68695859441357
 20
64.1761763726297
 30
0.0
 40
2.249956334638536
  0
ENDSEC
  0
SECTION
  2
OBJECTS
  0
DICTIONARY
  5
C
330
0
100
AcDbDictionary
281
     1
  3
ACAD_GROUP
350
D
  3
ACAD_LAYOUT
350
1A
  3
ACAD_MLEADERSTYLE
350
FE
  3
ACAD_MLINESTYLE
350
17
  3
ACAD_PLOTSETTINGS
350
19
  3
ACAD_PLOTSTYLENAME
350
E
  3
ACAD_SCALELIST
350
3D
  3
ACAD_TABLESTYLE
350
FD
  3
ACAD_VISUALSTYLE
350
2A
  3
AcDbVariableDictionary
350
FB
  0
DICTIONARY
  5
D
102
{ACAD_REACTORS
330
C
102
}
330
C
100
AcDbDictionary
281
     1
  0
DICTIONARY
  5
1A
102
{ACAD_REACTORS
330
C
102
}
330
C
100
AcDbDictionary
281
     1
  3
Layout1
350
1E
  3
Layout2
350
26
  3
Model
350
22
  0
DICTIONARY
  5
FE
102
{ACAD_REACTORS
330
C
102
}
330
C
100
AcDbDictionary
281
     1
  0
DICTIONARY
  5
17
102
{ACAD_REACTORS
330
C
102
}
330
C
100
AcDbDictionary
281
     1
  3
Standard
350
18
  0
DICTIONARY
  5
19
102
{ACAD_REACTORS
330
C
102
}
330
C
100
AcDbDictionary
281
     1
  0
ACDBDICTIONARYWDFLT
  5
E
102
{ACAD_REACTORS
330
C
102
}
330
C
100
AcDbDictionary
281
     1
  3
Normal
350
F
100
AcDbDictionaryWithDefault
340
F
  0
DICTIONARY
  5
3D
102
{ACAD_REACTORS
330
C
102
}
330
C
100
AcDbDictionary
281
     1
  3
A0
350
3E
  3
A1
350
3F
  3
A2
350
40
  3
A3
350
41
  3
A4
350
42
  3
A5
350
43
  3
A6
350
44
  3
A7
350
45
  3
A8
350
46
  3
A9
350
47
  3
B0
350
48
  3
B1
350
49
  3
B2
350
4A
  3
B3
350
4B
  3
B4
350
4C
  3
B5
350
4D
  3
B6
350
4E
  3
B7
350
4F
  3
B8
350
50
  3
B9
350
51
  3
C0
350
52
  3
C1
350
53
  3
C2
350
54
  3
C3
350
55
  3
C4
350
56
  3
C5
350
57
  3
C6
350
58
  3
C7
350
59
  3
C8
350
5A
  3
C9
350
5B
  3
D0
350
5C
  3
D1
350
5D
  3
D2
350
5E
  0
DICTIONARY
  5
FD
102
{ACAD_REACTORS
330
C
102
}
330
C
100
AcDbDictionary
281
     1
  0
DICTIONARY
  5
2A
102
{ACAD_REACTORS
330
C
102
}
330
C
100
AcDbDictionary
281
     1
  3
2dWireframe
350
2F
  3
3D Hidden
350
31
  3
3dWireframe
350
30
  3
Basic
350
32
  3
Brighten
350
36
  3
ColorChange
350
3A
  3
Conceptual
350
34
  3
Dim
350
35
  3
Facepattern
350
39
  3
Flat
350
2B
  3
FlatWithEdges
350
2C
  3
Gouraud
350
2D
  3
GouraudWithEdges
350
2E
  3
Linepattern
350
38
  3
Realistic
350
33
  3
Thicken
350
37
  0
DICTIONARY
  5
FB
102
{ACAD_REACTORS
330
C
102
}
330
C
100
AcDbDictionary
281
     1
  3
CANNOSCALE
350
FC
  0
LAYOUT
  5
1E
102
{ACAD_REACTORS
330
1A
102
}
330
1A
100
AcDbPlotSettings
  1

  2
none_device
  4

  6

 40
0.0
 41
0.0
 42
0.0
 43
0.0
 44
0.0
 45
0.0
 46
0.0
 47
0.0
 48
0.0
 49
0.0
140
0.0
141
0.0
142
1.0
143
1.0
 70
   688
 72
     0
 73
     0
 74
     5
  7

 75
    16
 76
     0
 77
     2
 78
   300
147
1.0
148
0.0
149
0.0
100
AcDbLayout
  1
Layout1
 70
     1
 71
     1
 10
0.0
 20
0.0
 11
12.0
 21
9.0
 12
0.0
 22
0.0
 32
0.0
 14
1.000000000000000E+20
 24
1.000000000000000E+20
 34
1.000000000000000E+20
 15
-1.000000000000000E+20
 25
-1.000000000000000E+20
 35
-1.000000000000000E+20
146
0.0
 13
0.0
 23
0.0
 33
0.0
 16
1.0
 26
0.0
 36
0.0
 17
0.0
 27
1.0
 37
0.0
 76
     0
330
1B
  0
LAYOUT
  5
26
102
{ACAD_REACTORS
330
1A
102
}
330
1A
100
AcDbPlotSettings
  1

  2
none_device
  4

  6

 40
0.0
 41
0.0
 42
0.0
 43
0.0
 44
0.0
 45
0.0
 46
0.0
 47
0.0
 48
0.0
 49
0.0
140
0.0
141
0.0
142
1.0
143
1.0
 70
   688
 72
     0
 73
     0
 74
     5
  7

 75
    16
 76
     0
 77
     2
 78
   300
147
1.0
148
0.0
149
0.0
100
AcDbLayout
  1
Layout2
 70
     1
 71
     2
 10
0.0
 20
0.0
 11
0.0
 21
0.0
 12
0.0
 22
0.0
 32
0.0
 14
0.0
 24
0.0
 34
0.0
 15
0.0
 25
0.0
 35
0.0
146
0.0
 13
0.0
 23
0.0
 33
0.0
 16
1.0
 26
0.0
 36
0.0
 17
0.0
 27
1.0
 37
0.0
 76
     0
330
23
  0
LAYOUT
  5
22
102
{ACAD_REACTORS
330
1A
102
}
330
1A
100
AcDbPlotSettings
  1

  2
none_device
  4

  6

 40
0.0
 41
0.0
 42
0.0
 43
0.0
 44
0.0
 45
0.0
 46
0.0
 47
0.0
 48
0.0
 49
0.0
140
0.0
141
0.0
142
1.0
143
1.0
 70
  1712
 72
     0
 73
     0
 74
     0
  7

 75
     0
 76
     0
 77
     2
 78
   300
147
1.0
148
0.0
149
0.0
100
AcDbLayout
  1
Model
 70
     1
 71
     0
 10
0.0
 20
0.0
 11
12.0
 21
9.0
 12
0.0
 22
0.0
 32
0.0
 14
-147.354218950699
 24
-134.7473837152728
 34
-0.0000001887044796
 15
129.9999847412109
 25
135.8478884546439
 35
0.0000079042776996
146
0.0
 13
0.0
 23
0.0
 33
0.0
 16
1.0
 26
0.0
 36
0.0
 17
0.0
 27
1.0
 37
0.0
 76
     0
330
1F
331
29
  0
MLINESTYLE
  5
18
102
{ACAD_REACTORS
330
17
102
}
330
17
100
AcDbMlineStyle
  2
Standard
 70
     0
  3

 62
   256
 51
90.0
 52
90.0
 71
     2
 49
0.5
 62
   256
  6
BYLAYER
 49
-0.5
 62
   256
  6
BYLAYER
  0
ACDBPLACEHOLDER
  5
F
102
{ACAD_REACTORS
330
E
102
}
330
E
  0
SCALE
  5
3E
102
{ACAD_REACTORS
330
3D
102
}
330
3D
100
AcDbScale
 70
     0
300
1:1
140
1.0
141
1.0
290
     1
  0
SCALE
  5
3F
102
{ACAD_REACTORS
330
3D
102
}
330
3D
100
AcDbScale
 70
     0
300
1:2
140
1.0
141
2.0
290
     0
  0
SCALE
  5
40
102
{ACAD_REACTORS
330
3D
102
}
330
3D
100
AcDbScale
 70
     0
300
1:4
140
1.0
141
4.0
290
     0
  0
SCALE
  5
41
102
{ACAD_REACTORS
330
3D
102
}
330
3D
100
AcDbScale
 70
     0
300
1:5
140
1.0
141
5.0
290
     0
  0
SCALE
  5
42
102
{ACAD_REACTORS
330
3D
102
}
330
3D
100
AcDbScale
 70
     0
300
1:8
140
1.0
141
8.0
290
     0
  0
SCALE
  5
43
102
{ACAD_REACTORS
330
3D
102
}
330
3D
100
AcDbScale
 70
     0
300
1:10
140
1.0
141
10.0
290
     0
  0
SCALE
  5
44
102
{ACAD_REACTORS
330
3D
102
}
330
3D
100
AcDbScale
 70
     0
300
1:16
140
1.0
141
16.0
290
     0
  0
SCALE
  5
45
102
{ACAD_REACTORS
330
3D
102
}
330
3D
100
AcDbScale
 70
     0
300
1:20
140
1.0
141
20.0
290
     0
  0
SCALE
  5
46
102
{ACAD_REACTORS
330
3D
102
}
330
3D
100
AcDbScale
 70
     0
300
1:30
140
1.0
141
30.0
290
     0
  0
SCALE
  5
47
102
{ACAD_REACTORS
330
3D
102
}
330
3D
100
AcDbScale
 70
     0
300
1:40
140
1.0
141
40.0
290
     0
  0
SCALE
  5
48
102
{ACAD_REACTORS
330
3D
102
}
330
3D
100
AcDbScale
 70
     0
300
1:50
140
1.0
141
50.0
290
     0
  0
SCALE
  5
49
102
{ACAD_REACTORS
330
3D
102
}
330
3D
100
AcDbScale
 70
     0
300
1:100
140
1.0
141
100.0
290
     0
  0
SCALE
  5
4A
102
{ACAD_REACTORS
330
3D
102
}
330
3D
100
AcDbScale
 70
     0
300
2:1
140
2.0
141
1.0
290
     0
  0
SCALE
  5
4B
102
{ACAD_REACTORS
330
3D
102
}
330
3D
100
AcDbScale
 70
     0
300
4:1
140
4.0
141
1.0
290
     0
  0
SCALE
  5
4C
102
{ACAD_REACTORS
330
3D
102
}
330
3D
100
AcDbScale
 70
     0
300
8:1
140
8.0
141
1.0
290
     0
  0
SCALE
  5
4D
102
{ACAD_REACTORS
330
3D
102
}
330
3D
100
AcDbScale
 70
     0
300
10:1
140
10.0
141
1.0
290
     0
  0
SCALE
  5
4E
102
{ACAD_REACTORS
330
3D
102
}
330
3D
100
AcDbScale
 70
     0
300
100:1
140
100.0
141
1.0
290
     0
  0
SCALE
  5
4F
102
{ACAD_REACTORS
330
3D
102
}
330
3D
100
AcDbScale
 70
     0
300
1/128" = 1'-0"
140
0.0078125
141
12.0
290
     0
  0
SCALE
  5
50
102
{ACAD_REACTORS
330
3D
102
}
330
3D
100
AcDbScale
 70
     0
300
1/64" = 1'-0"
140
0.015625
141
12.0
290
     0
  0
SCALE
  5
51
102
{ACAD_REACTORS
330
3D
102
}
330
3D
100
AcDbScale
 70
     0
300
1/32" = 1'-0"
140
0.03125
141
12.0
290
     0
  0
SCALE
  5
52
102
{ACAD_REACTORS
330
3D
102
}
330
3D
100
AcDbScale
 70
     0
300
1/16" = 1'-0"
140
0.0625
141
12.0
290
     0
  0
SCALE
  5
53
102
{ACAD_REACTORS
330
3D
102
}
330
3D
100
AcDbScale
 70
     0
300
3/32" = 1'-0"
140
0.09375
141
12.0
290
     0
  0
SCALE
  5
54
102
{ACAD_REACTORS
330
3D
102
}
330
3D
100
AcDbScale
 70
     0
300
1/8" = 1'-0"
140
0.125
141
12.0
290
     0
  0
SCALE
  5
55
102
{ACAD_REACTORS
330
3D
102
}
330
3D
100
AcDbScale
 70
     0
300
3/16" = 1'-0"
140
0.1875
141
12.0
290
     0
  0
SCALE
  5
56
102
{ACAD_REACTORS
330
3D
102
}
330
3D
100
AcDbScale
 70
     0
300
1/4" = 1'-0"
140
0.25
141
12.0
290
     0
  0
SCALE
  5
57
102
{ACAD_REACTORS
330
3D
102
}
330
3D
100
AcDbScale
 70
     0
300
3/8" = 1'-0"
140
0.375
141
12.0
290
     0
  0
SCALE
  5
58
102
{ACAD_REACTORS
330
3D
102
}
330
3D
100
AcDbScale
 70
     0
300
1/2" = 1'-0"
140
0.5
141
12.0
290
     0
  0
SCALE
  5
59
102
{ACAD_REACTORS
330
3D
102
}
330
3D
100
AcDbScale
 70
     0
300
3/4" = 1'-0"
140
0.75
141
12.0
290
     0
  0
SCALE
  5
5A
102
{ACAD_REACTORS
330
3D
102
}
330
3D
100
AcDbScale
 70
     0
300
1" = 1'-0"
140
1.0
141
12.0
290
     0
  0
SCALE
  5
5B
102
{ACAD_REACTORS
330
3D
102
}
330
3D
100
AcDbScale
 70
     0
300
1-1/2" = 1'-0"
140
1.5
141
12.0
290
     0
  0
SCALE
  5
5C
102
{ACAD_REACTORS
330
3D
102
}
330
3D
100
AcDbScale
 70
     0
300
3" = 1'-0"
140
3.0
141
12.0
290
     0
  0
SCALE
  5
5D
102
{ACAD_REACTORS
330
3D
102
}
330
3D
100
AcDbScale
 70
     0
300
6" = 1'-0"
140
6.0
141
12.0
290
     0
  0
SCALE
  5
5E
102
{ACAD_REACTORS
330
3D
102
}
330
3D
100
AcDbScale
 70
     0
300
1'-0" = 1'-0"
140
12.0
141
12.0
290
     0
  0
VISUALSTYLE
  5
2F
102
{ACAD_REACTORS
330
2A
102
}
330
2A
100
AcDbVisualStyle
  2
2dWireframe
 70
     4
 71
     0
 72
     2
 73
     0
 90
        0
 40
-0.6
 41
-30.0
 62
     5
 63
     7
421
 16777215
 74
     1
 91
        4
 64
     7
 65
   257
 75
     1
175
     1
 42
1.0
 92
        0
 66
   257
 43
1.0
 76
     1
 77
     6
 78
     2
 67
     7
 79
     5
170
     0
171
     0
290
     0
174
     0
 93
        1
 44
0.0
173
     0
291
     0
 45
0.0
1001
ACAD
1000
AcDbSavedByObjectVersion
1070
     0
  0
VISUALSTYLE
  5
31
102
{ACAD_REACTORS
330
2A
102
}
330
2A
100
AcDbVisualStyle
  2
3D Hidden
 70
     6
 71
     1
 72
     2
 73
     2
 90
        0
 40
-0.6
 41
-30.0
 62
     5
 63
     7
421
 16777215
 74
     2
 91
        2
 64
     7
 65
   257
 75
     2
175
     1
 42
40.0
 92
        0
 66
   257
 43
1.0
 76
     1
 77
     6
 78
     2
 67
     7
 79
     3
170
     0
171
     0
290
     0
174
     0
 93
        1
 44
0.0
173
     0
291
     0
 45
0.0
1001
ACAD
1000
AcDbSavedByObjectVersion
1070
     0
  0
VISUALSTYLE
  5
30
102
{ACAD_REACTORS
330
2A
102
}
330
2A
100
AcDbVisualStyle
  2
3dWireframe
 70
     5
 71
     0
 72
     2
 73
     0
 90
        0
 40
-0.6
 41
-30.0
 62
     5
 63
     7
421
 16777215
 74
     1
 91
        4
 64
     7
 65
   257
 75
     1
175
     1
 42
1.0
 92
        0
 66
   257
 43
1.0
 76
     1
 77
     6
 78
     2
 67
     7
 79
     5
170
     0
171
     0
290
     0
174
     0
 93
        1
 44
0.0
173
     0
291
     0
 45
0.0
1001
ACAD
1000
AcDbSavedByObjectVersion
1070
     0
  0
VISUALSTYLE
  5
32
102
{ACAD_REACTORS
330
2A
102
}
330
2A
100
AcDbVisualStyle
  2
Basic
 70
     7
 71
     1
 72
     0
 73
     1
 90
        0
 40
-0.6
 41
-30.0
 62
     5
 63
     7
421
 16777215
 74
     0
 91
        4
 64
     7
 65
   257
 75
     1
175
     1
 42
1.0
 92
        8
 66
     7
 43
1.0
 76
     1
 77
     6
 78
     2
 67
     7
 79
     5
170
     0
171
     0
290
     0
174
     0
 93
        1
 44
0.0
173
     0
291
     1
 45
0.0
1001
ACAD
1000
AcDbSavedByObjectVersion
1070
     0
  0
VISUALSTYLE
  5
36
102
{ACAD_REACTORS
330
2A
102
}
330
2A
100
AcDbVisualStyle
  2
Brighten
 70
    12
 71
     2
 72
     2
 73
     0
 90
        0
 40
-0.6
 41
-30.0
 62
     5
 63
     7
421
 16777215
 74
     1
 91
        4
 64
     7
 65
   257
 75
     1
175
     1
 42
1.0
 92
        8
 66
     7
 43
1.0
 76
     1
 77
     6
 78
     2
 67
     7
 79
     5
170
     0
171
     0
290
     0
174
     0
 93
        1
 44
50.0
173
     0
291
     1
 45
0.0
1001
ACAD
1000
AcDbSavedByObjectVersion
1070
     0
  0
VISUALSTYLE
  5
3A
102
{ACAD_REACTORS
330
2A
102
}
330
2A
100
AcDbVisualStyle
  2
ColorChange
 70
    16
 71
     2
 72
     2
 73
     3
 90
        0
 40
-0.6
 41
-30.0
 62
     5
 63
     8
421
  8421504
 74
     1
 91
        4
 64
     7
 65
   257
 75
     1
175
     1
 42
1.0
 92
        8
 66
     8
424
  8421504
 43
1.0
 76
     1
 77
     6
 78
     2
 67
     7
 79
     5
170
     0
171
     0
290
     0
174
     0
 93
        1
 44
0.0
173
     0
291
     1
 45
0.0
1001
ACAD
1000
AcDbSavedByObjectVersion
1070
     0
  0
VISUALSTYLE
  5
34
102
{ACAD_REACTORS
330
2A
102
}
330
2A
100
AcDbVisualStyle
  2
Conceptual
 70
     9
 71
     3
 72
     2
 73
     0
 90
        0
 40
-0.6
 41
-30.0
 62
     5
 63
     7
421
 16777215
 74
     2
 91
        2
 64
     7
 65
   257
 75
     1
175
     1
 42
40.0
 92
        8
 66
     7
 43
1.0
 76
     1
 77
     6
 78
     2
 67
     7
 79
     3
170
     0
171
     0
290
     0
174
     0
 93
        1
 44
0.0
173
     0
291
     0
 45
0.0
1001
ACAD
1000
AcDbSavedByObjectVersion
1070
     0
  0
VISUALSTYLE
  5
35
102
{ACAD_REACTORS
330
2A
102
}
330
2A
100
AcDbVisualStyle
  2
Dim
 70
    11
 71
     2
 72
     2
 73
     0
 90
        0
 40
-0.6
 41
-30.0
 62
     5
 63
     7
421
 16777215
 74
     1
 91
        4
 64
     7
 65
   257
 75
     1
175
     1
 42
1.0
 92
        8
 66
     7
 43
1.0
 76
     1
 77
     6
 78
     2
 67
     7
 79
     5
170
     0
171
     0
290
     0
174
     0
 93
        1
 44
-50.0
173
     0
291
     1
 45
0.0
1001
ACAD
1000
AcDbSavedByObjectVersion
1070
     0
  0
VISUALSTYLE
  5
39
102
{ACAD_REACTORS
330
2A
102
}
330
2A
100
AcDbVisualStyle
  2
Facepattern
 70
    15
 71
     2
 72
     2
 73
     0
 90
        0
 40
-0.6
 41
-30.0
 62
     5
 63
     7
421
 16777215
 74
     1
 91
        4
 64
     7
 65
   257
 75
     1
175
     1
 42
1.0
 92
        8
 66
     7
 43
1.0
 76
     1
 77
     6
 78
     2
 67
     7
 79
     5
170
     0
171
     0
290
     0
174
     0
 93
        1
 44
0.0
173
     0
291
     1
 45
0.0
1001
ACAD
1000
AcDbSavedByObjectVersion
1070
     0
  0
VISUALSTYLE
  5
2B
102
{ACAD_REACTORS
330
2A
102
}
330
2A
100
AcDbVisualStyle
  2
Flat
 70
     0
 71
     2
 72
     1
 73
     1
 90
        2
 40
-0.6
 41
30.0
 62
     5
 63
     7
421
 16777215
 74
     0
 91
        4
 64
     7
 65
   257
 75
     1
175
     1
 42
1.0
 92
        8
 66
     7
 43
1.0
 76
     1
 77
     6
 78
     2
 67
     7
 79
     5
170
     0
171
     0
290
     0
174
     0
 93
       13
 44
0.0
173
     0
291
     1
 45
0.0
1001
ACAD
1000
AcDbSavedByObjectVersion
1070
     0
  0
VISUALSTYLE
  5
2C
102
{ACAD_REACTORS
330
2A
102
}
330
2A
100
AcDbVisualStyle
  2
FlatWithEdges
 70
     1
 71
     2
 72
     1
 73
     1
 90
        2
 40
-0.6
 41
30.0
 62
     5
 63
     7
421
 16777215
 74
     1
 91
        4
 64
     7
 65
   257
 75
     1
175
     1
 42
1.0
 92
        0
 66
   257
 43
1.0
 76
     1
 77
     6
 78
     2
 67
     7
 79
     5
170
     0
171
     0
290
     0
174
     0
 93
       13
 44
0.0
173
     0
291
     1
 45
0.0
1001
ACAD
1000
AcDbSavedByObjectVersion
1070
     0
  0
VISUALSTYLE
  5
2D
102
{ACAD_REACTORS
330
2A
102
}
330
2A
100
AcDbVisualStyle
  2
Gouraud
 70
     2
 71
     2
 72
     2
 73
     1
 90
        2
 40
-0.6
 41
30.0
 62
     5
 63
     7
421
 16777215
 74
     0
 91
        4
 64
     7
 65
   257
 75
     1
175
     1
 42
1.0
 92
        0
 66
     7
 43
1.0
 76
     1
 77
     6
 78
     2
 67
     7
 79
     5
170
     0
171
     0
290
     0
174
     0
 93
       13
 44
0.0
173
     0
291
     1
 45
0.0
1001
ACAD
1000
AcDbSavedByObjectVersion
1070
     0
  0
VISUALSTYLE
  5
2E
102
{ACAD_REACTORS
330
2A
102
}
330
2A
100
AcDbVisualStyle
  2
GouraudWithEdges
 70
     3
 71
     2
 72
     2
 73
     1
 90
        2
 40
-0.6
 41
30.0
 62
     5
 63
     7
421
 16777215
 74
     1
 91
        4
 64
     7
 65
   257
 75
     1
175
     1
 42
1.0
 92
        0
 66
   257
 43
1.0
 76
     1
 77
     6
 78
     2
 67
     7
 79
     5
170
     0
171
     0
290
     0
174
     0
 93
       13
 44
0.0
173
     0
291
     1
 45
0.0
1001
ACAD
1000
AcDbSavedByObjectVersion
1070
     0
  0
VISUALSTYLE
  5
38
102
{ACAD_REACTORS
330
2A
102
}
330
2A
100
AcDbVisualStyle
  2
Linepattern
 70
    14
 71
     2
 72
     2
 73
     0
 90
        0
 40
-0.6
 41
-30.0
 62
     5
 63
     7
421
 16777215
 74
     1
 91
        4
 64
     7
 65
   257
 75
     7
175
     7
 42
1.0
 92
        8
 66
     7
 43
1.0
 76
     1
 77
     6
 78
     2
 67
     7
 79
     5
170
     0
171
     0
290
     0
174
     0
 93
        1
 44
0.0
173
     0
291
     1
 45
0.0
1001
ACAD
1000
AcDbSavedByObjectVersion
1070
     0
  0
VISUALSTYLE
  5
33
102
{ACAD_REACTORS
330
2A
102
}
330
2A
100
AcDbVisualStyle
  2
Realistic
 70
     8
 71
     2
 72
     2
 73
     0
 90
        0
 40
-0.6
 41
-30.0
 62
     5
 63
     7
421
 16777215
 74
     1
 91
        0
 64
     7
 65
   257
 75
     1
175
     1
 42
1.0
 92
        8
 66
     8
424
  7895160
 43
1.0
 76
     1
 77
     6
 78
     2
 67
     7
 79
     5
170
     0
171
     0
290
     0
174
     0
 93
       13
 44
0.0
173
     0
291
     0
 45
0.0
1001
ACAD
1000
AcDbSavedByObjectVersion
1070
     0
  0
VISUALSTYLE
  5
37
102
{ACAD_REACTORS
330
2A
102
}
330
2A
100
AcDbVisualStyle
  2
Thicken
 70
    13
 71
     2
 72
     2
 73
     0
 90
        0
 40
-0.6
 41
-30.0
 62
     5
 63
     7
421
 16777215
 74
     1
 91
        4
 64
     7
 65
   257
 75
     1
175
     1
 42
1.0
 92
       12
 66
     7
 43
1.0
 76
     1
 77
     6
 78
     2
 67
     7
 79
     5
170
     0
171
     0
290
     0
174
     0
 93
        1
 44
0.0
173
     0
291
     1
 45
0.0
1001
ACAD
1000
AcDbSavedByObjectVersion
1070
     0
  0
DICTIONARYVAR
  5
FC
102
{ACAD_REACTORS
330
FB
102
}
330
FB
100
DictionaryVariables
280
     0
  1
1:1
  0
ENDSEC
  0
EOF
